# xmcd
#
# Track frame offsets: 
#        150
#        17012
#        28637
#        43327
#        56130
#        67675
#        77892
#        90152
#        105005
#        118262
#        132915
#        151495
#        167045
#
# Disc length: 2445 seconds
#
# Revision: 2
# Processed by: cddbd v1.5.2PL0 Copyright (c) Steve Scherf et al.
# Submitted via: ExactAudioCopy v0.99pb5
#
DISCID=9c098b0d
DTITLE=Jesse Lee Jones - Brazilbilly
DYEAR=2000
DGENRE=Other
TTITLE0=Riders In The Sky
TTITLE1=Poison Love
TTITLE2=La Paloma
TTITLE3=Cavalo Preto
TTITLE4=Gardenias In Her Hair
TTITLE5=If That's What's In Your Heart
TTITLE6=Voce Vai Gostar
TTITLE7=I Still Do
TTITLE8=La Cantina
TTITLE9=Love Me
TTITLE10=Big Iron
TTITLE11=Listen To Your Heart
TTITLE12=Rancho Grande
EXTD=
EXTT0=
EXTT1=
EXTT2=
EXTT3=
EXTT4=
EXTT5=
EXTT6=
EXTT7=
EXTT8=
EXTT9=
EXTT10=
EXTT11=
EXTT12=
PLAYORDER=
